<svg width="20" height="22" viewBox="0 0 20 22" fill="none" xmlns="http://www.w3.org/2000/svg">
<mask id="path-1-inside-1_2136_1237" fill="white">
<path d="M5.75 4.5C5.34 4.5 5 4.16 5 3.75V0.75C5 0.34 5.34 0 5.75 0C6.16 0 6.5 0.34 6.5 0.75V3.75C6.5 4.16 6.16 4.5 5.75 4.5Z"/>
<path d="M13.75 4.5C13.34 4.5 13 4.16 13 3.75V0.75C13 0.34 13.34 0 13.75 0C14.16 0 14.5 0.34 14.5 0.75V3.75C14.5 4.16 14.16 4.5 13.75 4.5Z"/>
<path d="M6.25 13.25C6.12 13.25 5.99 13.22 5.87 13.17C5.74 13.12 5.64 13.05 5.54 12.96C5.36 12.77 5.25 12.52 5.25 12.25C5.25 12.12 5.28 11.99 5.33 11.87C5.38 11.75 5.45 11.64 5.54 11.54C5.64 11.45 5.74 11.38 5.87 11.33C6.23 11.18 6.68 11.26 6.96 11.54C7.14 11.73 7.25 11.99 7.25 12.25C7.25 12.31 7.24 12.38 7.23 12.45C7.22 12.51 7.2 12.57 7.17 12.63C7.15 12.69 7.12 12.75 7.08 12.81C7.05 12.86 7 12.91 6.96 12.96C6.77 13.14 6.51 13.25 6.25 13.25Z"/>
<path d="M9.75 13.25C9.62 13.25 9.49 13.22 9.37 13.17C9.24 13.12 9.14 13.05 9.04 12.96C8.86 12.77 8.75 12.52 8.75 12.25C8.75 12.12 8.78 11.99 8.83 11.87C8.88 11.75 8.95 11.64 9.04 11.54C9.14 11.45 9.24 11.38 9.37 11.33C9.73 11.17 10.18 11.26 10.46 11.54C10.64 11.73 10.75 11.99 10.75 12.25C10.75 12.31 10.74 12.38 10.73 12.45C10.72 12.51 10.7 12.57 10.67 12.63C10.65 12.69 10.62 12.75 10.58 12.81C10.55 12.86 10.5 12.91 10.46 12.96C10.27 13.14 10.01 13.25 9.75 13.25Z"/>
<path d="M13.25 13.25C13.12 13.25 12.99 13.22 12.87 13.17C12.74 13.12 12.64 13.05 12.54 12.96C12.5 12.91 12.46 12.86 12.42 12.81C12.38 12.75 12.35 12.69 12.33 12.63C12.3 12.57 12.28 12.51 12.27 12.45C12.26 12.38 12.25 12.31 12.25 12.25C12.25 11.99 12.36 11.73 12.54 11.54C12.64 11.45 12.74 11.38 12.87 11.33C13.24 11.17 13.68 11.26 13.96 11.54C14.14 11.73 14.25 11.99 14.25 12.25C14.25 12.31 14.24 12.38 14.23 12.45C14.22 12.51 14.2 12.57 14.17 12.63C14.15 12.69 14.12 12.75 14.08 12.81C14.05 12.86 14 12.91 13.96 12.96C13.77 13.14 13.51 13.25 13.25 13.25Z"/>
<path d="M6.25 16.75C6.12 16.75 5.99 16.72 5.87 16.67C5.75 16.62 5.64 16.55 5.54 16.46C5.36 16.27 5.25 16.01 5.25 15.75C5.25 15.62 5.28 15.49 5.33 15.37C5.38 15.24 5.45 15.13 5.54 15.04C5.91 14.67 6.59 14.67 6.96 15.04C7.14 15.23 7.25 15.49 7.25 15.75C7.25 16.01 7.14 16.27 6.96 16.46C6.77 16.64 6.51 16.75 6.25 16.75Z"/>
<path d="M9.75 16.75C9.49 16.75 9.23 16.64 9.04 16.46C8.86 16.27 8.75 16.01 8.75 15.75C8.75 15.62 8.78 15.49 8.83 15.37C8.88 15.24 8.95 15.13 9.04 15.04C9.41 14.67 10.09 14.67 10.46 15.04C10.55 15.13 10.62 15.24 10.67 15.37C10.72 15.49 10.75 15.62 10.75 15.75C10.75 16.01 10.64 16.27 10.46 16.46C10.27 16.64 10.01 16.75 9.75 16.75Z"/>
<path d="M13.25 16.75C12.99 16.75 12.73 16.64 12.54 16.46C12.45 16.37 12.38 16.26 12.33 16.13C12.28 16.01 12.25 15.88 12.25 15.75C12.25 15.62 12.28 15.49 12.33 15.37C12.38 15.24 12.45 15.13 12.54 15.04C12.77 14.81 13.12 14.7 13.44 14.77C13.51 14.78 13.57 14.8 13.63 14.83C13.69 14.85 13.75 14.88 13.81 14.92C13.86 14.95 13.91 15 13.96 15.04C14.14 15.23 14.25 15.49 14.25 15.75C14.25 16.01 14.14 16.27 13.96 16.46C13.77 16.64 13.51 16.75 13.25 16.75Z"/>
<path d="M18.25 8.58997H1.25C0.84 8.58997 0.5 8.24997 0.5 7.83997C0.5 7.42997 0.84 7.08997 1.25 7.08997H18.25C18.66 7.08997 19 7.42997 19 7.83997C19 8.24997 18.66 8.58997 18.25 8.58997Z"/>
<path d="M13.75 21.5H5.75C2.1 21.5 0 19.4 0 15.75V7.25C0 3.6 2.1 1.5 5.75 1.5H13.75C17.4 1.5 19.5 3.6 19.5 7.25V15.75C19.5 19.4 17.4 21.5 13.75 21.5ZM5.75 3C2.89 3 1.5 4.39 1.5 7.25V15.75C1.5 18.61 2.89 20 5.75 20H13.75C16.61 20 18 18.61 18 15.75V7.25C18 4.39 16.61 3 13.75 3H5.75Z"/>
</mask>
<path d="M5.75 4.5C5.34 4.5 5 4.16 5 3.75V0.75C5 0.34 5.34 0 5.75 0C6.16 0 6.5 0.34 6.5 0.75V3.75C6.5 4.16 6.16 4.5 5.75 4.5Z" stroke="white" stroke-width="2" mask="url(#path-1-inside-1_2136_1237)"/>
<path d="M13.75 4.5C13.34 4.5 13 4.16 13 3.75V0.75C13 0.34 13.34 0 13.75 0C14.16 0 14.5 0.34 14.5 0.75V3.75C14.5 4.16 14.16 4.5 13.75 4.5Z" stroke="white" stroke-width="2" mask="url(#path-1-inside-1_2136_1237)"/>
<path d="M6.25 13.25C6.12 13.25 5.99 13.22 5.87 13.17C5.74 13.12 5.64 13.05 5.54 12.96C5.36 12.77 5.25 12.52 5.25 12.25C5.25 12.12 5.28 11.99 5.33 11.87C5.38 11.75 5.45 11.64 5.54 11.54C5.64 11.45 5.74 11.38 5.87 11.33C6.23 11.18 6.68 11.26 6.96 11.54C7.14 11.73 7.25 11.99 7.25 12.25C7.25 12.31 7.24 12.38 7.23 12.45C7.22 12.51 7.2 12.57 7.17 12.63C7.15 12.69 7.12 12.75 7.08 12.81C7.05 12.86 7 12.91 6.96 12.96C6.77 13.14 6.51 13.25 6.25 13.25Z" stroke="white" stroke-width="2" mask="url(#path-1-inside-1_2136_1237)"/>
<path d="M9.75 13.25C9.62 13.25 9.49 13.22 9.37 13.17C9.24 13.12 9.14 13.05 9.04 12.96C8.86 12.77 8.75 12.52 8.75 12.25C8.75 12.12 8.78 11.99 8.83 11.87C8.88 11.75 8.95 11.64 9.04 11.54C9.14 11.45 9.24 11.38 9.37 11.33C9.73 11.17 10.18 11.26 10.46 11.54C10.64 11.73 10.75 11.99 10.75 12.25C10.75 12.31 10.74 12.38 10.73 12.45C10.72 12.51 10.7 12.57 10.67 12.63C10.65 12.69 10.62 12.75 10.58 12.81C10.55 12.86 10.5 12.91 10.46 12.96C10.27 13.14 10.01 13.25 9.75 13.25Z" stroke="white" stroke-width="2" mask="url(#path-1-inside-1_2136_1237)"/>
<path d="M13.25 13.25C13.12 13.25 12.99 13.22 12.87 13.17C12.74 13.12 12.64 13.05 12.54 12.96C12.5 12.91 12.46 12.86 12.42 12.81C12.38 12.75 12.35 12.69 12.33 12.63C12.3 12.57 12.28 12.51 12.27 12.45C12.26 12.38 12.25 12.31 12.25 12.25C12.25 11.99 12.36 11.73 12.54 11.54C12.64 11.45 12.74 11.38 12.87 11.33C13.24 11.17 13.68 11.26 13.96 11.54C14.14 11.73 14.25 11.99 14.25 12.25C14.25 12.31 14.24 12.38 14.23 12.45C14.22 12.51 14.2 12.57 14.17 12.63C14.15 12.69 14.12 12.75 14.08 12.81C14.05 12.86 14 12.91 13.96 12.96C13.77 13.14 13.51 13.25 13.25 13.25Z" stroke="white" stroke-width="2" mask="url(#path-1-inside-1_2136_1237)"/>
<path d="M6.25 16.75C6.12 16.75 5.99 16.72 5.87 16.67C5.75 16.62 5.64 16.55 5.54 16.46C5.36 16.27 5.25 16.01 5.25 15.75C5.25 15.62 5.28 15.49 5.33 15.37C5.38 15.24 5.45 15.13 5.54 15.04C5.91 14.67 6.59 14.67 6.96 15.04C7.14 15.23 7.25 15.49 7.25 15.75C7.25 16.01 7.14 16.27 6.96 16.46C6.77 16.64 6.51 16.75 6.25 16.75Z" stroke="white" stroke-width="2" mask="url(#path-1-inside-1_2136_1237)"/>
<path d="M9.75 16.75C9.49 16.75 9.23 16.64 9.04 16.46C8.86 16.27 8.75 16.01 8.75 15.75C8.75 15.62 8.78 15.49 8.83 15.37C8.88 15.24 8.95 15.13 9.04 15.04C9.41 14.67 10.09 14.67 10.46 15.04C10.55 15.13 10.62 15.24 10.67 15.37C10.72 15.49 10.75 15.62 10.75 15.75C10.75 16.01 10.64 16.27 10.46 16.46C10.27 16.64 10.01 16.75 9.75 16.75Z" stroke="white" stroke-width="2" mask="url(#path-1-inside-1_2136_1237)"/>
<path d="M13.25 16.75C12.99 16.75 12.73 16.64 12.54 16.46C12.45 16.37 12.38 16.26 12.33 16.13C12.28 16.01 12.25 15.88 12.25 15.75C12.25 15.62 12.28 15.49 12.33 15.37C12.38 15.24 12.45 15.13 12.54 15.04C12.77 14.81 13.12 14.7 13.44 14.77C13.51 14.78 13.57 14.8 13.63 14.83C13.69 14.85 13.75 14.88 13.81 14.92C13.86 14.95 13.91 15 13.96 15.04C14.14 15.23 14.25 15.49 14.25 15.75C14.25 16.01 14.14 16.27 13.96 16.46C13.77 16.64 13.51 16.75 13.25 16.75Z" stroke="white" stroke-width="2" mask="url(#path-1-inside-1_2136_1237)"/>
<path d="M18.25 8.58997H1.25C0.84 8.58997 0.5 8.24997 0.5 7.83997C0.5 7.42997 0.84 7.08997 1.25 7.08997H18.25C18.66 7.08997 19 7.42997 19 7.83997C19 8.24997 18.66 8.58997 18.25 8.58997Z" stroke="white" stroke-width="2" mask="url(#path-1-inside-1_2136_1237)"/>
<path d="M13.75 21.5H5.75C2.1 21.5 0 19.4 0 15.75V7.25C0 3.6 2.1 1.5 5.75 1.5H13.75C17.4 1.5 19.5 3.6 19.5 7.25V15.75C19.5 19.4 17.4 21.5 13.75 21.5ZM5.75 3C2.89 3 1.5 4.39 1.5 7.25V15.75C1.5 18.61 2.89 20 5.75 20H13.75C16.61 20 18 18.61 18 15.75V7.25C18 4.39 16.61 3 13.75 3H5.75Z" stroke="white" stroke-width="2" mask="url(#path-1-inside-1_2136_1237)"/>
</svg>
