<svg width="24" height="24" viewBox="0 0 24 24" fill="none" xmlns="http://www.w3.org/2000/svg">
<g clip-path="url(#clip0_2136_971)">
<path d="M11.9906 0.761272C5.33058 0.667522 0.384328 6.37127 0.716203 12.4706C1.10808 19.6538 6.2437 23.2631 12.2512 23.2219C18.5625 23.1788 23.3512 18.705 23.22 11.9475C23.0906 5.20127 18.1293 0.849397 11.9906 0.761272Z" fill="#C8C8C8"/>
<path d="M6.72374 2.85189C2.06249 5.52376 -0.896256 13.0969 4.06874 18.8269C4.67624 19.5281 5.64187 20.0175 6.37499 20.3513C11.3812 22.6144 17.4394 19.1344 19.7831 16.4813C21.6431 14.3756 22.3275 12.9788 22.1062 10.1044C21.9356 7.86939 20.9794 5.71126 18.9975 4.11564C14.5162 0.500638 9.68437 1.15314 6.72374 2.85189Z" fill="white"/>
<path d="M11.4187 7.46062C11.4019 7.45124 9.66749 6.45562 8.32124 5.95687C6.91874 5.43749 5.88374 5.15812 5.87249 5.15624L6.06562 4.43249C6.10874 4.44374 7.14374 4.72124 8.58187 5.25562C9.98812 5.77687 11.7206 6.77062 11.7937 6.81374L11.4187 7.46062ZM14.4688 5.50387L15.4894 1.86224L16.2116 2.06456L15.1912 5.70618L14.4688 5.50387ZM22.05 10.2225C22.0406 10.2187 21.0431 9.83999 19.9294 9.53812C19.0912 9.31124 18.0112 9.08062 18 9.07874L18.1556 8.34562C18.2006 8.35499 19.2656 8.58187 20.1244 8.81437C21.2775 9.12562 22.275 9.50624 22.3181 9.52124L22.05 10.2225ZM16.1494 17.58C16.1494 17.5687 16.0556 16.425 15.8306 15.255C15.6075 14.1 15.1819 13.0125 15.1781 13.0031L15.8756 12.7275C15.8944 12.7744 16.3312 13.8881 16.5675 15.1144C16.8 16.3275 16.8937 17.4731 16.8975 17.5219L16.1494 17.58ZM19.8787 18.6225L19.3837 18.0581C19.3912 18.0525 20.1112 17.415 21 16.215C21.8212 15.105 22.2 14.1337 22.2037 14.1225L22.9031 14.3906C22.8862 14.4337 22.4831 15.4687 21.6019 16.6594C20.6625 17.9306 19.9106 18.5944 19.8787 18.6225ZM6.1588 14.79L10.4981 10.9168L10.9976 11.4763L6.65812 15.3495L6.1588 14.79ZM2.42062 13.7531C2.40937 13.68 2.16187 11.9456 2.16187 10.3594C2.16187 8.77687 2.34187 7.31249 2.35124 7.25062L3.09562 7.34437C3.09374 7.35937 2.91374 8.82562 2.91374 10.3594C2.91374 11.8894 3.16312 13.6294 3.16499 13.6462L2.42062 13.7531ZM13.3687 21.3094C13.3219 21.3037 12.1781 21.1594 10.2 20.5781C8.93999 20.2069 7.49999 19.4456 7.43812 19.4137L7.79062 18.7519C7.80562 18.7594 9.22499 19.5112 10.4119 19.86C12.3244 20.4225 13.4494 20.565 13.4606 20.5669L13.3687 21.3094Z" fill="#171717"/>
<path d="M10.0069 6.13498C9.94881 6.28123 10.0257 11.5031 10.1438 11.6587C10.2619 11.8144 15.5119 13.5975 15.7463 13.5394C15.9807 13.4812 18.7819 9.0731 18.7819 8.89685C18.7819 8.7206 15.3357 4.46998 15.1594 4.4306C14.9832 4.39123 10.0857 5.9381 10.0069 6.13498ZM22.0051 6.77623C22.0051 6.77623 21.2326 9.34685 21.2326 9.54373C21.2326 9.73873 21.7032 10.8169 21.9188 12.1481C22.1344 13.4794 21.8213 15.4781 21.9582 15.5569C22.0951 15.6356 22.7738 15.5962 22.7738 15.5962C22.7738 15.5962 23.4282 13.5394 23.1526 10.8956C22.8769 8.24998 22.0051 6.77623 22.0051 6.77623ZM16.4326 17.0062C16.2751 17.0212 12.1426 20.5706 12.1613 20.67C12.1801 20.7675 13.7794 23.1244 13.7794 23.1244C13.7794 23.1244 15.7894 22.965 17.6307 21.9675C19.4719 20.97 20.1713 20.0831 20.1713 20.0831C20.1713 20.0831 20.4263 17.7131 20.3288 17.6944C20.2332 17.6719 16.6294 16.9875 16.4326 17.0062ZM2.64193 12.5794C2.53506 12.6675 1.91631 14.0287 1.74006 14.7937C1.56381 15.5569 1.46631 16.2825 1.46631 16.2825C1.46631 16.2825 1.93693 17.6437 2.64193 18.6525C3.51568 19.9012 4.65193 20.7825 4.65193 20.7825C4.65193 20.7825 8.36068 19.6519 8.38131 19.4944C8.40193 19.3369 7.95006 17.9662 7.63693 16.83C7.32381 15.6937 7.26568 14.4206 7.14756 14.3419C7.02943 14.2631 5.83506 13.8919 4.89568 13.5187C3.95631 13.1456 2.76006 12.4819 2.64193 12.5794ZM1.47943 7.85248C1.47943 7.85248 2.50506 8.73935 2.66256 8.73935C2.82006 8.73935 3.81381 7.4231 4.81693 6.62435C6.16881 5.54623 6.83443 5.19373 6.85506 5.05685C6.87381 4.91998 7.46256 1.6481 7.46256 1.6481C7.46256 1.6481 5.28756 2.47123 3.70131 4.29185C2.11506 6.11248 1.47943 7.85248 1.47943 7.85248ZM12.5719 0.774353C12.5719 0.774353 13.8226 1.41748 14.2782 1.73435C14.7338 2.05123 15.4051 2.72248 15.6038 2.7431C15.8007 2.76373 18.5213 2.7656 18.5213 2.7656C18.5213 2.7656 17.2876 1.92185 15.9207 1.4381C14.2763 0.854978 12.5719 0.774353 12.5719 0.774353Z" fill="#474C4F"/>
</g>
<defs>
<clipPath id="clip0_2136_971">
<rect width="24" height="24" fill="white"/>
</clipPath>
</defs>
</svg>
