<svg width="12" height="12" viewBox="0 0 12 12" fill="none" xmlns="http://www.w3.org/2000/svg">
<g clip-path="url(#clip0_2180_1464)">
<path d="M10.2789 7.92141L10.7356 7.71805C10.6475 7.52016 10.442 7.40151 10.2266 7.42415L10.2789 7.92141ZM7.18023 10.7114L6.69116 10.6075C6.64612 10.8194 6.74264 11.0361 6.93023 11.1445L7.18023 10.7114ZM1.52107 3.77509L1.07345 3.55231L1.52107 3.77509ZM1.43534 8.0436L0.979109 8.24817H0.979109L1.43534 8.0436ZM10.4443 8.29308L10.8885 8.5227L10.4443 8.29308ZM5.25009 2.70573L4.9562 3.11024L7.04102 4.62495L7.33491 4.22044L7.6288 3.81593L5.54398 2.30122L5.25009 2.70573ZM7.33491 4.22044L6.85938 4.06593L6.06305 6.51678L6.53858 6.67129L7.01411 6.82579L7.81044 4.37495L7.33491 4.22044ZM6.53858 6.67129V6.17129H3.96161V6.67129V7.17129H6.53858V6.67129ZM3.96161 6.67129L4.43713 6.51678L3.6408 4.06593L3.16528 4.22044L2.68975 4.37495L3.48608 6.82579L3.96161 6.67129ZM3.16528 4.22044L3.45917 4.62495L5.54398 3.11024L5.25009 2.70573L4.9562 2.30122L2.87138 3.81593L3.16528 4.22044ZM10.2789 7.92141L10.2266 7.42415L7.66375 7.69352L7.71602 8.19078L7.76828 8.68804L10.3311 8.41868L10.2789 7.92141ZM7.71602 8.19078L7.22694 8.08683L6.69116 10.6075L7.18023 10.7114L7.66931 10.8154L8.20509 8.29474L7.71602 8.19078ZM5.25009 2.70573H5.75009V1.06165H5.25009H4.75009V2.70573H5.25009ZM7.33491 4.22044L7.46564 4.70305L9.21681 4.22868L9.08608 3.74607L8.95535 3.26346L7.20418 3.73783L7.33491 4.22044ZM6.53858 6.67129L6.14335 6.97754L7.32079 8.49704L7.71602 8.19078L8.11125 7.88452L6.93381 6.36503L6.53858 6.67129ZM3.96161 6.67129L3.55988 6.3736L2.43392 7.8931L2.83564 8.19078L3.23737 8.48847L4.36333 6.96897L3.96161 6.67129ZM9.54784 2.54316L9.08105 2.36398L8.61929 3.56688L9.08608 3.74607L9.55287 3.92525L10.0146 2.72235L9.54784 2.54316ZM9.08608 3.74607L8.84514 4.18418L10.5899 5.14373L10.8308 4.70562L11.0718 4.2675L9.32703 3.30795L9.08608 3.74607ZM6 1V1.5C8.08171 1.5 9.83444 2.91397 10.3478 4.83472L10.8308 4.70562L11.3139 4.57651C10.6866 2.22931 8.54587 0.5 6 0.5V1ZM10.8308 4.70562L10.3478 4.83472C10.447 5.20583 10.5 5.59634 10.5 6H11H11.5C11.5 5.50839 11.4354 5.0311 11.3139 4.57651L10.8308 4.70562ZM3.16528 4.22044L3.29599 3.73783L1.65179 3.29248L1.52107 3.77509L1.39035 4.2577L3.03456 4.70305L3.16528 4.22044ZM1 6H1.5C1.5 5.27972 1.66886 4.60031 1.96869 3.99788L1.52107 3.77509L1.07345 3.55231C0.706262 4.29005 0.5 5.12166 0.5 6H1ZM1.52107 3.77509L1.96869 3.99788C2.70611 2.51626 4.23483 1.5 6 1.5V1V0.5C3.84095 0.5 1.97339 1.74413 1.07345 3.55231L1.52107 3.77509ZM1.43534 8.0436L1.38308 8.54086L2.78338 8.68804L2.83564 8.19078L2.88791 7.69352L1.48761 7.54634L1.43534 8.0436ZM1.43534 8.0436L1.89158 7.83903C1.64012 7.27821 1.5 6.65614 1.5 6H1H0.5C0.5 6.7999 0.671075 7.56119 0.979109 8.24817L1.43534 8.0436ZM6 11V10.5C5.08842 10.5 4.24154 10.2295 3.53343 9.76446L3.25897 10.1824L2.98451 10.6003C3.85068 11.1691 4.88746 11.5 6 11.5V11ZM3.25897 10.1824L3.53343 9.76446C2.81804 9.29466 2.24467 8.6265 1.89158 7.83903L1.43534 8.0436L0.979109 8.24817C1.41094 9.21124 2.1112 10.0268 2.98451 10.6003L3.25897 10.1824ZM2.83564 8.19078L2.34657 8.29474L2.7699 10.2864L3.25897 10.1824L3.74805 10.0784L3.32472 8.08683L2.83564 8.19078ZM10.4443 8.29308L10.9011 8.08971L10.7356 7.71805L10.2789 7.92141L9.8221 8.12478L9.98758 8.49644L10.4443 8.29308ZM11 6H10.5C10.5 6.74477 10.3195 7.44591 10.0002 8.06345L10.4443 8.29308L10.8885 8.5227C11.2794 7.76655 11.5 6.9083 11.5 6H11ZM10.4443 8.29308L10.0002 8.06345C9.43363 9.15932 8.42999 9.99233 7.22176 10.3323L7.35719 10.8136L7.49262 11.2949C8.97163 10.8788 10.1967 9.8608 10.8885 8.5227L10.4443 8.29308ZM7.35719 10.8136L7.22176 10.3323C6.83383 10.4415 6.42416 10.5 6 10.5V11V11.5C6.51662 11.5 7.0174 11.4286 7.49262 11.2949L7.35719 10.8136ZM7.18023 10.7114L6.93023 11.1445L7.10719 11.2466L7.35719 10.8136L7.60719 10.3806L7.43023 10.2784L7.18023 10.7114Z" fill="#00FFA5"/>
</g>
<defs>
<clipPath id="clip0_2180_1464">
<rect width="12" height="12" fill="white"/>
</clipPath>
</defs>
</svg>
