<svg width="14" height="12" viewBox="0 0 14 12" fill="none" xmlns="http://www.w3.org/2000/svg">
<path d="M9.62695 0.5C11.395 0.500156 12.833 1.94051 12.833 3.72656C12.833 4.46549 12.7153 5.14697 12.5107 5.7793L12.5098 5.78223C12.0189 7.3356 11.0111 8.59413 9.91504 9.53613C8.81685 10.4799 7.65872 11.0813 6.91895 11.333L6.91406 11.335C6.87093 11.3502 6.78109 11.3662 6.66699 11.3662C6.55282 11.3662 6.46313 11.3502 6.41992 11.335L6.41406 11.333C5.67425 11.0812 4.51605 10.4799 3.41797 9.53613C2.32193 8.59414 1.3141 7.33556 0.823242 5.78223L0.822266 5.7793C0.617714 5.147 0.5 4.46546 0.5 3.72656C0.500056 1.94041 1.93887 0.5 3.70703 0.5C4.74865 0.500118 5.68327 1.00643 6.2666 1.78613L6.66699 2.32129L7.06738 1.78613C7.65079 1.00646 8.58528 0.5 9.62695 0.5Z" fill="#D1D5DB" stroke="#D1D5DB"/>
</svg>
