<svg width="12" height="12" viewBox="0 0 12 12" fill="none" xmlns="http://www.w3.org/2000/svg">
<path d="M4.78613 10.4951C4.37341 10.4536 4.04638 10.1266 4.00488 9.71387C4.04683 10.1244 4.37557 10.4532 4.78613 10.4951ZM9.43164 7.24609C9.44342 7.27686 9.45511 7.30778 9.46387 7.33984C9.45518 7.30789 9.44337 7.277 9.43164 7.24609ZM3.32129 6.58594C3.35086 6.57254 3.38102 6.56 3.41113 6.54688C3.38071 6.5601 3.35057 6.5727 3.32129 6.58594ZM8.29199 6.42578C8.34589 6.44627 8.3988 6.4678 8.45117 6.48926C8.39936 6.46812 8.34647 6.44659 8.29199 6.42578ZM3.62207 6.45898C3.6771 6.4372 3.73339 6.41718 3.79004 6.39648C3.73271 6.41736 3.67646 6.43752 3.62207 6.45898ZM3.95215 6.33789C4.03001 6.31172 4.10978 6.28841 4.19043 6.26465C4.10888 6.28863 4.02912 6.31209 3.95215 6.33789ZM4.29883 6.23242C4.3867 6.20818 4.47644 6.18699 4.56738 6.16602C4.47564 6.18719 4.38587 6.20844 4.29883 6.23242ZM7.17285 6.11133C7.22007 6.12019 7.26701 6.12887 7.31348 6.13867L7.17285 6.11133ZM4.69727 6.13574C4.79956 6.11436 4.90389 6.0968 5.00977 6.08008C4.90313 6.09698 4.79874 6.1145 4.69727 6.13574ZM5.10352 6.06445C5.14136 6.05905 5.17949 6.05456 5.21777 6.0498C5.17941 6.0546 5.14127 6.05904 5.10352 6.06445ZM6.77051 6.04883C6.80581 6.05315 6.84104 6.05666 6.87598 6.06152C6.84108 6.05652 6.80581 6.05323 6.77051 6.04883ZM6.39258 6.0127C6.42332 6.0146 6.45389 6.0172 6.48438 6.01953C6.4539 6.01721 6.42334 6.01457 6.39258 6.0127ZM5.55078 6.01562C5.56927 6.01431 5.58786 6.01385 5.60645 6.0127C5.58785 6.01386 5.56926 6.0143 5.55078 6.01562ZM4.53027 3.30176C4.65052 3.88665 5.11335 4.34947 5.69824 4.46973L5.84668 4.49219C5.19093 4.42569 4.66018 3.93753 4.53027 3.30273V3.30176ZM7.46973 3.30273C7.34983 3.88859 6.88859 4.34985 6.30273 4.46973L6.15332 4.49219C6.80728 4.42529 7.33947 3.93532 7.46973 3.30176V3.30273ZM5.84668 1.50781C5.19274 1.57474 4.66052 2.06469 4.53027 2.69824L4.50781 2.84668C4.57429 2.19093 5.06248 1.66019 5.69727 1.53027L5.84668 1.50781ZM6.15332 1.50781C6.80909 1.57428 7.33982 2.06246 7.46973 2.69727L7.49219 2.84668C7.42527 2.19272 6.93533 1.66051 6.30176 1.53027L6.15332 1.50781ZM4.78613 8.75488C4.37557 8.79684 4.04683 9.12557 4.00488 9.53613C4.04638 9.1234 4.37341 8.7964 4.78613 8.75488ZM6.60742 8.75L6.74219 8.46289L7.51758 6.8125L6.12207 9.78809L5.78809 10.5L5.92285 10.2119L6.27344 9.46191L6.60547 8.75H6.60742ZM2.5 7.60645C2.49891 7.43574 2.54379 7.26876 2.62695 7.12012C2.54487 7.26924 2.5 7.43834 2.5 7.61035V7.60645Z" stroke="white"/>
</svg>
