<svg width="13" height="10" viewBox="0 0 13 10" fill="none" xmlns="http://www.w3.org/2000/svg">
<path d="M2.34863 0.5C2.3591 0.500133 2.36926 0.502754 2.37891 0.506836C2.38867 0.510996 2.39784 0.516834 2.40527 0.524414L2.40918 0.527344C2.42999 0.548152 2.43925 0.573722 2.43848 0.604492C2.43753 0.638377 2.42343 0.673499 2.39844 0.699219C1.34834 1.76336 0.700415 3.22694 0.700195 4.83984C0.699236 5.63756 0.860156 6.42768 1.17383 7.16113C1.48746 7.89441 1.9471 8.5562 2.52441 9.10645C2.54973 9.13098 2.56485 9.1661 2.56641 9.20117C2.56771 9.23292 2.55868 9.25864 2.53809 9.2793L2.53418 9.2832C2.51963 9.29797 2.49924 9.30613 2.47852 9.30664C2.45784 9.30706 2.43707 9.2992 2.42188 9.28516C1.81501 8.716 1.33158 8.02818 1.00098 7.26465C0.669837 6.49975 0.499165 5.67432 0.5 4.84082V4.83984C0.499258 4.03727 0.657088 3.2422 0.964844 2.50098C1.27218 1.76082 1.72219 1.08797 2.29004 0.522461L2.29102 0.523438C2.29859 0.516006 2.30754 0.509827 2.31738 0.505859C2.32723 0.501891 2.33802 0.499897 2.34863 0.5ZM10.4512 0.5C10.4617 0.499897 10.4726 0.501934 10.4824 0.505859C10.4921 0.509751 10.5013 0.515228 10.5088 0.522461C11.0769 1.08807 11.5275 1.76059 11.835 2.50098C12.1427 3.2422 12.3005 4.03727 12.2998 4.83984V4.84082C12.3006 5.67432 12.13 6.49975 11.7988 7.26465C11.4681 8.02841 10.9841 8.7159 10.377 9.28516C10.3617 9.29921 10.342 9.30711 10.3213 9.30664C10.3005 9.30613 10.2802 9.29803 10.2656 9.2832L10.2627 9.2793L10.2393 9.24414C10.2346 9.23157 10.2328 9.21764 10.2334 9.20215C10.2341 9.18452 10.2387 9.16678 10.2461 9.15039L10.2764 9.10645C10.8536 8.55606 11.3125 7.89355 11.626 7.16016C11.9394 6.42677 12.1007 5.63741 12.0996 4.83984C12.0994 3.32775 11.5302 1.94685 10.5938 0.90332L10.4014 0.699219C10.3764 0.673507 10.3623 0.638335 10.3613 0.604492C10.3606 0.573736 10.3698 0.548146 10.3906 0.527344L10.3916 0.52832L10.3945 0.524414C10.402 0.516835 10.4111 0.510996 10.4209 0.506836C10.4305 0.502734 10.4407 0.500159 10.4512 0.5ZM3.7627 1.91113C3.78154 1.91143 3.79937 1.92008 3.8125 1.93359L3.81836 1.93848C3.83908 1.95913 3.84884 1.98356 3.84766 2.0166C3.8462 2.0551 3.82897 2.09601 3.80176 2.12402L3.80078 2.125C3.11998 2.82707 2.70041 3.78519 2.7002 4.83984C2.69963 5.3717 2.80779 5.89841 3.01855 6.38672C3.20299 6.81402 3.46266 7.20405 3.78418 7.53906L3.92578 7.67969C3.95465 7.70717 3.9741 7.74824 3.97656 7.78809C3.97869 7.8225 3.96859 7.84782 3.94727 7.86914L3.94238 7.87402C3.92982 7.88696 3.91255 7.89477 3.89453 7.89551C3.87714 7.89618 3.86002 7.89001 3.84668 7.87891C3.01866 7.12835 2.50004 6.0458 2.5 4.84082V4.83984C2.49939 4.29811 2.6067 3.76163 2.81543 3.26172C3.02347 2.76347 3.32807 2.31132 3.71191 1.93164C3.72546 1.91856 3.74386 1.91084 3.7627 1.91113ZM9.03711 1.91113C9.04653 1.91098 9.05586 1.91262 9.06445 1.91602L9.08789 1.93066C9.47193 2.31048 9.7763 2.76323 9.98438 3.26172C10.1931 3.76173 10.3005 4.29803 10.2998 4.83984V4.84082C10.2998 6.04611 9.78054 7.12832 8.95215 7.87891C8.93891 7.88963 8.92236 7.89617 8.90527 7.89551C8.88733 7.89473 8.86994 7.88691 8.85742 7.87402L8.85254 7.86914L8.8291 7.83301C8.82438 7.81993 8.82317 7.80512 8.82422 7.78809C8.82671 7.74807 8.84592 7.70716 8.875 7.67969C9.26237 7.31532 9.57049 6.87498 9.78125 6.38672C9.99202 5.89841 10.1002 5.3717 10.0996 4.83984C10.0994 3.78514 9.67988 2.82708 8.99902 2.125L8.99805 2.12402L8.96582 2.07422C8.95799 2.05578 8.95289 2.03599 8.95215 2.0166C8.95088 1.98316 8.96014 1.95797 8.98047 1.9375L8.98145 1.93848L8.9873 1.93262C9.00039 1.91915 9.01834 1.91148 9.03711 1.91113ZM6.40039 4.14062C6.5858 4.14073 6.76337 4.21465 6.89453 4.3457C7.02581 4.47698 7.09961 4.65517 7.09961 4.84082C7.09957 5.02642 7.02577 5.2047 6.89453 5.33594C6.76338 5.46689 6.58573 5.54091 6.40039 5.54102C6.21487 5.54102 6.03652 5.46704 5.90527 5.33594C5.77403 5.2047 5.70024 5.02642 5.7002 4.84082C5.7002 4.65517 5.774 4.47698 5.90527 4.3457C6.03654 4.2145 6.21479 4.14063 6.40039 4.14062Z" fill="#D1D5DB" stroke="#D1D5DB"/>
</svg>
