<svg width="19" height="18" viewBox="0 0 19 18" fill="none" xmlns="http://www.w3.org/2000/svg">
<mask id="path-1-inside-1_2180_1294" fill="white">
<path d="M1 4.71082H13V16.7108H1V4.71082Z"/>
</mask>
<path d="M13 4.71082H15V2.71082H13V4.71082ZM1 4.71082V6.71082H13V4.71082V2.71082H1V4.71082ZM13 4.71082H11V16.7108H13H15V4.71082H13Z" fill="white" mask="url(#path-1-inside-1_2180_1294)"/>
<path d="M4.88544 0.871259L5.37023 6.08949L11.9681 9.571L16.295 11.2201L14.1289 9.02783L18.8694 6.50152L13.2801 6.43766L14.7466 1.39662L10.9045 4.96548L9.94559 2.2639e-06L8.21458 4.57353L4.88544 0.871259Z" fill="white"/>
<mask id="path-4-inside-2_2180_1294" fill="white">
<path d="M11.9168 11.2129C11.9168 12.1083 11.6996 12.953 11.3149 13.6971C10.6333 15.0155 9.42604 16.0181 7.97045 16.4277C7.50292 16.5592 7.00976 16.6296 6.50016 16.6296C5.40377 16.6296 4.38345 16.3039 3.53072 15.7439C2.67017 15.1787 1.98029 14.375 1.55512 13.4268C1.25206 12.7509 1.0835 12.0016 1.0835 11.2129C1.0835 10.347 1.28669 9.52854 1.64799 8.80261C2.53489 7.02064 4.37454 5.79626 6.50016 5.79626C9.00677 5.79626 11.1157 7.49887 11.7336 9.81068C11.8531 10.2579 11.9168 10.728 11.9168 11.2129Z"/>
<path d="M5.68776 7.64414L7.94631 9.28507L7.08362 11.9402H4.2919L3.42921 9.28507L5.68776 7.64414Z"/>
<path d="M5.68776 7.64414L7.94631 9.28507L7.08362 11.9402H4.2919L3.42921 9.28507L5.68776 7.64414Z"/>
</mask>
<path d="M11.9168 11.2129C11.9168 12.1083 11.6996 12.953 11.3149 13.6971C10.6333 15.0155 9.42604 16.0181 7.97045 16.4277C7.50292 16.5592 7.00976 16.6296 6.50016 16.6296C5.40377 16.6296 4.38345 16.3039 3.53072 15.7439C2.67017 15.1787 1.98029 14.375 1.55512 13.4268C1.25206 12.7509 1.0835 12.0016 1.0835 11.2129C1.0835 10.347 1.28669 9.52854 1.64799 8.80261C2.53489 7.02064 4.37454 5.79626 6.50016 5.79626C9.00677 5.79626 11.1157 7.49887 11.7336 9.81068C11.8531 10.2579 11.9168 10.728 11.9168 11.2129Z" fill="white"/>
<path d="M5.68776 7.64414L7.94631 9.28507L7.08362 11.9402H4.2919L3.42921 9.28507L5.68776 7.64414Z" fill="white"/>
<path d="M5.68776 7.64414L7.94631 9.28507L7.08362 11.9402H4.2919L3.42921 9.28507L5.68776 7.64414Z" fill="white"/>
<path d="M11.1356 13.2945L11.5924 13.0911C11.5043 12.8932 11.2988 12.7746 11.0833 12.7972L11.1356 13.2945ZM7.77875 16.317L7.28968 16.213C7.24464 16.4249 7.34116 16.6417 7.52875 16.75L7.77875 16.317ZM5.68776 7.64414L5.39387 8.04865L7.65242 9.68958L7.94631 9.28507L8.24021 8.88056L5.98165 7.23963L5.68776 7.64414ZM7.94631 9.28507L7.47079 9.13056L6.6081 11.7856L7.08362 11.9402L7.55915 12.0947L8.42184 9.43958L7.94631 9.28507ZM7.08362 11.9402V11.4402H4.2919V11.9402V12.4402H7.08362V11.9402ZM4.2919 11.9402L4.76743 11.7856L3.90474 9.13056L3.42921 9.28507L2.95368 9.43958L3.81637 12.0947L4.2919 11.9402ZM3.42921 9.28507L3.7231 9.68958L5.98165 8.04865L5.68776 7.64414L5.39387 7.23963L3.13532 8.88056L3.42921 9.28507ZM11.1356 13.2945L11.0833 12.7972L8.30692 13.089L8.35918 13.5863L8.41145 14.0835L11.1879 13.7917L11.1356 13.2945ZM8.35918 13.5863L7.87011 13.4823L7.28968 16.213L7.77875 16.317L8.26782 16.421L8.84826 13.6902L8.35918 13.5863ZM5.68776 7.64414H6.18776V5.86305H5.68776H5.18776V7.64414H5.68776ZM7.94631 9.28507L8.07705 9.76768L9.97415 9.25378L9.84342 8.77117L9.71269 8.28857L7.81558 8.80247L7.94631 9.28507ZM7.08362 11.9402L6.68839 12.2464L7.96395 13.8925L8.35918 13.5863L8.75441 13.28L7.47885 11.6339L7.08362 11.9402ZM4.2919 11.9402L3.89017 11.6425L2.67038 13.2886L3.07211 13.5863L3.47384 13.884L4.69363 12.2378L4.2919 11.9402ZM10.3437 7.46802L9.87686 7.28884L9.37663 8.59199L9.84342 8.77117L10.3102 8.95036L10.8104 7.64721L10.3437 7.46802ZM9.84342 8.77117L9.60247 9.20929L11.4926 10.2488L11.7336 9.81068L11.9745 9.37257L10.0844 8.33306L9.84342 8.77117ZM3.42921 9.28507L3.55993 8.80246L1.77871 8.32L1.64799 8.80261L1.51727 9.28522L3.29849 9.76768L3.42921 9.28507ZM1.55512 13.4268L1.50285 13.9241L3.01985 14.0835L3.07211 13.5863L3.12437 13.089L1.60738 12.9296L1.55512 13.4268ZM3.07211 13.5863L2.58304 13.6902L3.04164 15.8478L3.53072 15.7439L4.01979 15.6399L3.56118 13.4823L3.07211 13.5863ZM11.3149 13.6971L11.7716 13.4937L11.5924 13.0911L11.1356 13.2945L10.6788 13.4978L10.8581 13.9005L11.3149 13.6971ZM7.77875 16.317L7.52875 16.75L7.72045 16.8607L7.97045 16.4277L8.22045 15.9947L8.02875 15.884L7.77875 16.317ZM11.7336 9.81068L10.7675 10.0689L11.7336 9.81068ZM1.64799 8.80261L0.752741 8.35704H0.752741L1.64799 8.80261ZM1.55512 13.4268L0.642649 13.836V13.836L1.55512 13.4268ZM3.53072 15.7439L4.07964 14.908L3.53072 15.7439ZM11.3149 13.6971L12.2032 14.1564L11.3149 13.6971ZM7.97045 16.4277L7.69959 15.4651V15.4651L7.97045 16.4277ZM6.50016 5.79626V6.79626C8.54261 6.79626 10.2636 8.18353 10.7675 10.0689L11.7336 9.81068L12.6997 9.55248C11.9678 6.81421 9.47092 4.79626 6.50016 4.79626V5.79626ZM11.7336 9.81068L10.7675 10.0689C10.8647 10.4327 10.9168 10.8159 10.9168 11.2129H11.9168H12.9168C12.9168 10.64 12.8415 10.0832 12.6997 9.55248L11.7336 9.81068ZM1.0835 11.2129H2.0835C2.0835 10.5051 2.24928 9.8388 2.54323 9.24819L1.64799 8.80261L0.752741 8.35704C0.32409 9.21829 0.0834961 10.1889 0.0834961 11.2129H1.0835ZM1.64799 8.80261L2.54323 9.24819C3.26761 7.79277 4.76843 6.79626 6.50016 6.79626V5.79626V4.79626C3.98066 4.79626 1.80217 6.24852 0.752741 8.35704L1.64799 8.80261ZM1.55512 13.4268L2.46759 13.0177C2.2211 12.468 2.0835 11.8579 2.0835 11.2129H1.0835H0.0834961C0.0834961 12.1454 0.283017 13.0339 0.642649 13.836L1.55512 13.4268ZM6.50016 16.6296V15.6296C5.60472 15.6296 4.77432 15.3642 4.07964 14.908L3.53072 15.7439L2.9818 16.5797C3.99258 17.2435 5.20281 17.6296 6.50016 17.6296V16.6296ZM3.53072 15.7439L4.07964 14.908C3.37701 14.4466 2.81402 13.7903 2.46759 13.0177L1.55512 13.4268L0.642649 13.836C1.14655 14.9598 1.96333 15.9109 2.9818 16.5797L3.53072 15.7439ZM11.9168 11.2129H10.9168C10.9168 11.9448 10.7396 12.6324 10.4266 13.2378L11.3149 13.6971L12.2032 14.1564C12.6595 13.2737 12.9168 12.2719 12.9168 11.2129H11.9168ZM11.3149 13.6971L10.4266 13.2378C9.87019 14.314 8.8844 15.1317 7.69959 15.4651L7.97045 16.4277L8.24131 17.3903C9.96768 16.9045 11.3963 15.717 12.2032 14.1564L11.3149 13.6971ZM7.97045 16.4277L7.69959 15.4651C7.31935 15.572 6.9173 15.6296 6.50016 15.6296V16.6296V17.6296C7.10222 17.6296 7.68649 17.5464 8.24131 17.3903L7.97045 16.4277Z" fill="#111827" mask="url(#path-4-inside-2_2180_1294)"/>
</svg>
