<svg width="24" height="24" viewBox="0 0 24 24" fill="none" xmlns="http://www.w3.org/2000/svg">
<g clip-path="url(#clip0_2151_959)">
<path d="M23.9344 12C23.9344 18.5906 18.5907 23.9344 11.9982 23.9344C5.40942 23.9344 0.0656738 18.5906 0.0656738 12C0.0656738 5.40749 5.40942 0.0656128 11.9982 0.0656128C18.5907 0.0656128 23.9344 5.40749 23.9344 12Z" fill="#27A2DF"/>
<mask id="mask0_2151_959" style="mask-type:luminance" maskUnits="userSpaceOnUse" x="0" y="0" width="24" height="24">
<path d="M23.9344 12C23.9344 18.5906 18.5907 23.9344 11.9982 23.9344C5.40943 23.9344 0.0656738 18.5906 0.0656738 12C0.0656738 5.40749 5.40943 0.0656128 11.9982 0.0656128C18.5907 0.0656128 23.9344 5.40749 23.9344 12Z" fill="white"/>
</mask>
<g mask="url(#mask0_2151_959)">
<path d="M20.4357 15.5137C20.2389 15.3656 19.8376 15.1856 19.6145 15.1518C19.2339 15.0937 19.0276 15.2268 18.8495 14.8237C18.7014 14.4881 18.5907 14.2781 18.3264 14.0006C17.8164 13.4681 17.3551 13.2318 16.6632 12.9656H15.4857C14.9907 12.8306 14.4938 12.6543 14.0532 13.0481C14.0064 13.0893 13.967 13.1418 13.9239 13.1887C13.8751 13.2412 13.6557 13.26 13.5845 13.2787C13.4851 13.3031 13.3801 13.3331 13.2751 13.335C13.1139 13.3387 12.8926 13.2956 12.782 13.1681C12.7182 13.095 12.6807 12.9506 12.6714 12.855C12.6601 12.7275 12.7145 12.6168 12.7163 12.495C12.7201 12.3862 12.7257 12.2606 12.6957 12.1575C12.6339 11.9418 12.3901 11.88 12.2007 11.8387C12.0882 11.8143 11.9776 11.7975 11.8632 11.76C11.5764 11.6625 11.7245 11.2706 11.8463 11.0962C11.9701 10.9181 12.1482 10.7943 11.8501 10.6312C11.6101 10.5018 11.3157 10.5225 11.1039 10.68C10.9014 10.8337 10.7682 11.1318 10.5226 11.2087C10.2413 11.2987 9.93572 11.0925 9.66947 11.055C9.69572 10.7006 9.5176 10.0481 9.52697 9.88684C9.55323 9.46122 9.86635 8.99997 10.277 8.88747C10.6876 8.77497 11.1395 8.68872 11.5651 8.73372C12.2232 8.80309 12.1951 9.15559 12.5382 9.61497C12.6507 9.76497 12.8664 9.94122 13.0614 9.83809C13.4757 9.62059 13.3482 9.06184 13.3614 8.68497C13.382 8.09809 13.7589 7.74372 14.1189 7.3106C14.252 7.15122 14.387 6.99372 14.5182 6.83247C14.6364 6.68622 14.7751 6.54935 14.9739 6.51184C15.1126 6.48747 15.2832 6.51372 15.4239 6.51372C15.6526 6.51372 16.0895 6.5906 16.2226 6.35622C16.3464 6.13497 16.1645 5.9831 15.9807 5.91185C15.9057 5.88185 15.7782 5.86685 15.7557 5.7731C15.6789 5.44497 16.0314 5.43372 16.2507 5.3981C16.4495 5.36622 16.7064 5.30059 16.8582 5.48434C16.9257 5.56684 16.892 5.66622 16.9689 5.7506C17.1095 5.90247 17.4714 5.81622 17.6232 5.7281C17.7995 5.62497 17.8482 5.33622 17.8482 5.14872C17.8482 5.05122 17.8332 4.94997 17.777 4.86935C17.627 4.6556 17.1864 4.55809 16.9651 4.43247C16.6426 4.24872 16.3426 4.03122 16.0482 3.80809C15.7032 3.54747 15.3264 3.33747 14.9457 3.13685C14.6176 2.96622 14.2107 2.6831 13.8264 2.7506C13.6764 2.77497 13.5939 2.88372 13.562 3.0281C13.5414 3.13685 13.4907 3.24747 13.4907 3.35997C13.4926 3.49685 13.5564 3.62247 13.5957 3.74997C13.6445 3.90935 13.6838 4.07247 13.5582 4.2056C13.4382 4.33122 13.172 4.32747 13.0332 4.22435C12.8645 4.09685 12.7951 3.89247 12.6095 3.79497C12.4032 3.68622 12.2495 3.65622 12.0188 3.68435C11.8032 3.7106 11.5445 3.73685 11.3288 3.68247C11.1226 3.63184 10.922 3.38247 10.9182 3.1706C10.9145 3.01872 10.9482 2.80685 11.0926 2.72247C11.2632 2.62497 11.5463 2.64935 11.7376 2.63435C11.777 2.63247 11.8145 2.62872 11.8501 2.62497C11.8557 2.6231 11.8614 2.6231 11.867 2.6231C11.8726 2.62122 11.8801 2.62122 11.8857 2.62122C11.9401 2.61372 11.9907 2.6081 12.0264 2.59872C12.0245 2.59497 12.0188 2.59122 12.017 2.58747C12.047 2.64372 12.2176 2.39622 12.2232 2.3681C12.2532 2.24435 12.1613 2.09997 12.2063 1.98372C12.2401 1.89747 12.362 1.8431 12.4426 1.81684C12.5682 1.77747 12.6976 1.79997 12.8251 1.8131C12.9282 1.82435 13.0388 1.82435 13.1401 1.84497C13.3745 1.89372 13.382 2.07747 13.5282 2.21997C13.7382 2.41685 13.8657 2.3306 14.1395 2.3681C14.4339 2.40747 15.2064 2.91372 15.4689 2.5181C15.7614 2.07747 14.9739 1.7531 14.7301 1.67247C14.3457 1.54497 13.9632 1.28435 13.712 0.965595C13.5882 0.808095 13.4907 0.616845 13.4945 0.410595C13.5001 0.24372 13.4945 -0.0131547 13.6501 -0.12003C13.6876 -0.144405 13.7289 -0.159405 13.772 -0.16128C13.8489 -0.16878 13.9332 -0.17253 13.997 -0.13503C14.0907 -0.0769048 14.1676 0.0355953 14.2164 0.13122C14.3195 0.33747 14.2839 0.534345 14.432 0.740595C14.5801 0.94122 14.7732 1.10435 14.9532 1.2731C15.4201 1.7081 15.9357 2.09435 16.5339 2.3231C16.8564 2.44685 17.1957 2.54247 17.5014 2.71122C17.8482 2.90622 17.9757 3.15747 18.2064 3.4556C18.8532 4.28622 20.7507 4.01622 20.3064 2.7056C19.9726 1.7231 19.3201 0.88122 18.4501 0.34872C18.032 0.0937202 17.657 -0.260655 17.2351 -0.496905C16.7064 -0.79128 16.0726 -0.88128 15.4839 -0.97878C14.7882 -1.09315 14.1057 -1.14565 13.4026 -1.17753C12.8907 -1.20003 12.3489 -1.28253 11.9232 -0.93753C11.6964 -0.755655 11.0288 -0.12378 11.0157 0.13872C11.0026 0.38997 11.3326 0.52497 11.3851 0.755595C11.4057 0.85497 11.4132 0.943095 11.3363 1.0181C11.252 1.1006 11.1357 1.12685 11.117 1.2581C11.102 1.37247 11.1451 1.44935 11.1901 1.54685C11.2257 1.62185 11.3026 1.76622 11.237 1.85059C11.0626 2.06997 10.8282 1.67435 10.8132 1.52435C10.7907 1.2806 10.8676 1.06872 10.6201 0.91497C10.4532 0.811845 9.99947 0.766845 9.9301 1.0106C9.89635 1.12685 10.0276 1.23935 10.0126 1.37435C9.98073 1.6481 9.79885 1.57872 9.59072 1.61435C9.22697 1.67622 9.15197 1.9481 8.76197 1.7681C8.72447 1.5731 8.83697 1.2581 8.6476 1.12685C8.49572 1.02372 8.15447 1.09872 7.98385 1.03122C7.55635 0.85872 7.17947 0.804345 6.72385 0.939345C6.24197 1.08372 5.7601 1.36872 5.2951 1.59935C4.69697 1.8956 3.76135 1.51497 3.27385 1.95185L3.26447 2.03622C2.86322 2.03247 2.69635 2.09622 2.4151 2.46935C2.2126 2.73747 2.10947 2.99622 1.9876 3.29247C1.89572 3.51747 1.70447 3.72372 1.66885 3.97497C1.64635 4.15122 1.65947 4.37435 1.68572 4.54872C1.69885 4.64622 2.56697 4.38185 2.6776 4.39497C3.08072 4.44747 3.39197 4.83747 3.71447 5.0456C3.9901 5.21997 4.32385 5.39997 4.3726 5.73559C4.4326 6.14059 4.3576 6.59247 4.36885 7.00309C4.39135 7.81872 5.2351 8.43935 5.7376 9.00372C5.96072 9.25497 5.97947 9.5681 6.19885 9.80435C6.32072 9.93747 6.6901 10.5993 6.9601 10.3537C7.17572 10.1587 6.61135 9.56247 6.65635 9.28872C6.68072 9.12185 7.05947 9.4556 7.08197 9.47997C7.23947 9.66747 7.32197 9.93747 7.40447 10.1643C7.5826 10.6537 7.7401 10.8712 8.15072 11.0625C8.12635 11.2968 8.36635 11.4543 8.5801 11.5762C8.81447 11.7093 9.06947 11.7131 9.31885 11.8237C9.5551 11.9306 9.81385 11.9287 10.0332 12.0356C10.3595 12.1931 10.1401 12.3487 10.3238 12.5831C10.5282 12.8456 10.9163 12.6843 11.192 12.7275C11.7826 12.8193 11.6832 13.3837 12.0507 13.7231C12.2513 13.9125 12.5945 13.8918 12.8476 13.92C12.947 13.9312 13.0764 13.9331 13.1551 14.0043C13.352 14.1787 13.1214 14.4187 13.0464 14.5893C12.9432 14.8181 12.872 15.0637 12.827 15.3112C12.7014 16.0012 12.7276 16.7718 13.2301 17.3062C13.7776 17.8893 14.447 18.1537 14.6551 18.9862C14.8332 19.6818 14.6682 20.3625 14.5407 21.0487C14.462 21.4612 13.8976 22.1775 14.4582 22.4812C14.9457 22.7456 15.7745 22.0181 16.0932 21.7406C16.8451 21.0843 17.8389 20.685 18.3339 19.7643C18.5682 19.3275 18.7764 18.8662 19.187 18.5643C19.4026 18.405 19.652 18.3 19.8826 18.1668C20.372 17.8875 20.6645 17.2931 20.8839 16.8C21.1426 16.2018 20.9045 15.8643 20.4357 15.5137ZM11.6063 4.96122C11.7395 4.92934 11.9195 4.93685 11.9757 4.94997C12.1913 5.00247 12.3507 5.17122 12.5157 5.30622C12.6357 5.40184 12.737 5.5031 12.8439 5.60997C12.9132 5.67935 12.9788 5.74122 12.9639 5.85559C12.9526 5.95497 12.8964 6.00372 12.8064 6.01309C12.6432 6.02997 12.5701 5.92309 12.4239 5.89872C12.077 5.84059 11.9326 6.42559 11.5857 6.26622C11.4976 6.22497 11.5238 6.15184 11.5238 6.05809C11.522 5.98685 11.5238 5.9231 11.5501 5.86122C11.5838 5.78247 11.6382 5.71685 11.7038 5.65872C11.7451 5.6231 11.8126 5.59497 11.8445 5.54809C11.9213 5.42809 11.8126 5.3006 11.7038 5.2556C11.6363 5.22747 11.537 5.22559 11.4938 5.1656C11.4132 5.05122 11.492 4.99122 11.6063 4.96122ZM25.5039 11.4525C25.5001 10.89 25.5264 10.1193 25.0576 9.71247C24.6245 9.3356 24.0901 9.56435 23.732 9.92435C23.0382 10.6237 22.757 11.9437 23.3345 12.7931C23.5482 13.1081 23.8201 13.3706 24.1764 13.4531C24.5251 13.5337 25.1907 13.5768 25.3614 13.2206C25.4589 13.0162 25.4214 12.7762 25.4214 12.5531C25.4195 12.1725 25.5076 11.8293 25.5039 11.4525Z" fill="#BDCF46"/>
<path d="M14.6532 10.7381C14.4807 10.6519 14.4151 10.5056 14.3007 10.3894C14.2445 10.3331 14.177 10.2844 14.0795 10.2544C13.8957 10.2019 13.6632 10.2225 13.4739 10.2337C13.1945 10.2506 12.482 10.2975 12.4464 10.6894C12.3995 11.19 13.0876 11.1337 13.4289 11.1281C13.6632 11.1244 13.8901 11.0381 14.1245 11.0962C14.4676 11.1806 14.3907 11.4862 14.657 11.6025C14.7526 11.6437 15.0489 11.7 15.1407 11.7075C15.482 11.7375 16.3014 11.5406 16.0839 11.0531C15.887 10.605 15.0039 10.9125 14.6532 10.7381Z" fill="#BDCF46"/>
</g>
</g>
<defs>
<clipPath id="clip0_2151_959">
<rect width="24" height="24" fill="white"/>
</clipPath>
</defs>
</svg>
